{"title":"Sugababes - Overloaded - Singles Collection (AC-3, 5.1) [akhiugo","uid":4712555,"size":771561472,"categoryP":"video","categoryS":"music_videos","magnet":"?xt=urn:btih:4081bd13b8e533b633d14f8b2e19c48699cde404&amp;dn=Sugababes+-+Overloaded+-+Singles+Collection+%28AC-3%2C+5.1%29+%5Bakhiugo&amp;tr=udp%3A%2F%2Ftracker.openbittorrent.com%3A80&amp;tr=udp%3A%2F%2Fopen.demonii.com%3A1337&amp;tr=udp%3A%2F%2Ftracker.coppersurfer.tk%3A6969&amp;tr=udp%3A%2F%2Fexodus.desync.com%3A6969","seeders":2,"leechers":0,"uploader":"akhiugo","files":-1,"time":1234119577,"description":"DVDRip XviD.\n\n1. Freak Like Me\n2. Round Round\n3. Red Dress\n4. In The Middle\n5. Stronger\n6. Shape\n7. Overloaded\n8. Caught\n9. Ugly\n10.Easy\n11.Too Lost In You\n12.Run For Cover\n13.Hole In The Head\n14.Push The Button\n\nAll tracks were re-encoded at the same time and specific details will differ from track to track but here are the specs for track 1 which is typical of the set:\n\n\nFormat                           : AVI\nFormat/Info                      : Audio Video Interleave\nFile size                        : 65.6 MiB\nDuration                         : 3mn 40s\nOverall bit rate                 : 2 496 Kbps\nWriting application              : VirtualDubMod 1.5.4.1 (build 2178/release)\nWriting library                  : VirtualDubMod build 2178/release\n\nVideo\nFormat                           : MPEG-4 Visual\nFormat profile                   : Streaming Video@L1\nFormat settings, BVOP            : Yes\nFormat settings, QPel            : No\nFormat settings, GMC             : No warppoints\nFormat settings, Matrix          : Custom\nCodec ID                         : XVID\nCodec ID/Hint                    : XviD\nDuration                         : 3mn 40s\nBit rate                         : 2 040 Kbps\nWidth                            : 720 pixels\nHeight                           : 496 pixels\nDisplay aspect ratio             : 1.452\nFrame rate                       : 29.970 fps\nResolution                       : 24 bits\nColorimetry                      : 4:2:0\nScan type                        : Progressive\nBits/(Pixel*Frame)               : 0.191\nStream size                      : 53.6 MiB (82%)\nWriting library                  : XviD 1.2.1 (UTC 2008-12-04)\n\nAudio\nFormat                           : AC-3\nFormat/Info                      : Audio Coding 3\nCodec ID                         : 2000\nDuration                         : 3mn 40s\nBit rate mode                    : Constant\nBit rate                         : 448 Kbps\nChannel(s)                       : 6 channels\nChannel positions                : Front: L C R, Surround: L R, LFE\nSampling rate                    : 48.0 KHz\nVideo delay                      : 8ms\nStream size                      : 11.8 MiB (18%)\nAlignment                        : Split accross interleaves\nInterleave, duration             : 96 ms (2.88 video frames)\nInterleave, preload duration     : 96 ms\n\n\nPlease help your fellow pirates by seeding after your download!","torrent":{"xt":"urn:btih:4081bd13b8e533b633d14f8b2e19c48699cde404","amp;dn":"Sugababes+-+Overloaded+-+Singles+Collection+%28AC-3%2C+5.1%29+%5Bakhiugo","amp;tr":["udp%3A%2F%2Ftracker.openbittorrent.com%3A80","udp%3A%2F%2Fopen.demonii.com%3A1337","udp%3A%2F%2Ftracker.coppersurfer.tk%3A6969","udp%3A%2F%2Fexodus.desync.com%3A6969"],"infoHash":"4081bd13b8e533b633d14f8b2e19c48699cde404","infoHashBuffer":{"type":"Buffer","data":[64,129,189,19,184,229,51,182,51,209,79,139,46,25,196,134,153,205,228,4]},"announce":[],"urlList":[]}}